<mxfile host="app.diagrams.net" modified="2024-05-23T12:38:59.233Z" agent="Mozilla/5.0 (Windows NT 10.0; Win64; x64) AppleWebKit/537.36 (KHTML, like Gecko) Chrome/124.0.0.0 Safari/537.36" version="24.3.1" etag="r7E1NstGC-VaPYaqtHf_" type="github">
  <diagram name="Trang-1" id="vOaAZzG74jaLz6k90Mfo">
    <mxGraphModel>
      <root>
        <mxCell id="0" />
        <mxCell id="1" parent="0" />
      </root>
    </mxGraphModel>
  </diagram>
</mxfile>
